<svg width="352" height="352" viewBox="0 0 352 352" fill="none" xmlns="http://www.w3.org/2000/svg">
<g clip-path="url(#clip0)">
<path d="M72.326 147.33C76.61 120.402 110.27 91.638 136.586 91.026C138.422 91.026 140.258 90.414 141.482 89.19C142.706 88.578 143.93 87.966 144.542 86.13C153.722 68.994 148.826 55.53 133.526 44.514C115.778 31.662 87.626 44.514 73.55 56.142C38.054 85.518 1.946 136.313 3.782 184.662C-2.338 217.099 -1.114 251.982 8.066 280.746C14.186 299.106 31.934 308.286 50.294 309.51C68.654 310.735 106.598 316.242 123.122 305.227C139.646 294.21 140.87 272.79 142.706 254.431C144.542 234.235 150.05 196.29 132.914 180.378C115.778 165.078 66.818 181.602 72.326 147.33Z" fill="#EDF2F7"/>
<path d="M274.286 147.33C278.57 120.402 312.229 91.638 338.546 91.026C340.382 91.026 342.218 90.414 343.442 89.19C344.667 88.578 345.89 87.966 346.503 86.13C355.683 68.994 350.787 55.53 335.487 44.514C317.739 31.662 289.587 44.514 275.51 56.142C240.014 85.518 203.906 136.314 205.742 184.662C199.622 217.099 200.846 251.982 210.025 280.746C216.145 299.106 233.893 308.286 252.254 309.51C270.614 310.735 308.558 316.242 325.082 305.227C341.605 294.21 342.83 272.79 344.666 254.431C346.502 234.235 352.01 196.29 334.874 180.378C317.738 165.078 268.166 181.602 274.286 147.33Z" fill="#EDF2F7"/>
</g>
<defs>
<clipPath id="clip0">
<rect width="351.128" height="351.128" fill="white"/>
</clipPath>
</defs>
</svg>
